<svg id="Layer_1" data-name="Layer 1" xmlns="http://www.w3.org/2000/svg" viewBox="0 0 163.61 142.11"><defs><style>.cls-1{fill:#666;}.cls-1,.cls-2,.cls-3,.cls-4{stroke:#000;stroke-miterlimit:10;stroke-width:0.25px;}.cls-2{fill:none;}.cls-3{font-size:27.2px;fill:#2e3192;font-family:Rockwell-Italic, Rockwell;font-style:italic;}.cls-4{font-size:29.62px;fill:#c1272d;font-family:Rockwell-Regular, Rockwell;}</style></defs><g id="UAwOd6.tif"><path class="cls-1" d="M9.92,24.19a10.26,10.26,0,0,1,5.66-9.29c2.14-1.19,4.56-1.9,6.83-2.88a7.36,7.36,0,0,0,1.53-1.09c.22-.18.32-.51.55-.66.51-.33,1.06-.6,1.6-.9,0,.47,0,.93-.07,1.39a4.9,4.9,0,0,0,1.75,4.52,2.12,2.12,0,0,1,.38.46c-.21.11-.42.3-.63.3a3.78,3.78,0,0,1-1.62-.13,4,4,0,0,0-3.06,0,18.79,18.79,0,0,0-7,3.37,7.26,7.26,0,0,0-2.42,7.35c.68,3.67,1.34,7.34,2.12,11q3.31,15.51,6.75,31c.19.9.13,1.08-1,1.23-1.6.2-1.9-.44-2.22-1.66-3.64-13.81-6.73-27.73-9-41.81C10,25.66,10,24.92,9.92,24.19Z"/><path class="cls-1" d="M158.05,75.69a10.4,10.4,0,1,1-10.29-10.45A10.37,10.37,0,0,1,158.05,75.69Zm-10.27-7a7,7,0,1,0-.19,13.93,7,7,0,1,0,.19-13.93Z"/><path class="cls-1" d="M58.72,11.41a4.74,4.74,0,0,1-4.45,4.66A4.51,4.51,0,0,1,50,11.53a4.51,4.51,0,0,1,4.62-4.29A3.78,3.78,0,0,1,58.72,11.41Z"/><path class="cls-1" d="M26.73,11.28a3.86,3.86,0,0,1,4.09-4,4.45,4.45,0,0,1,4.56,4.58,4.37,4.37,0,0,1-4.2,4.26A4.77,4.77,0,0,1,26.73,11.28Z"/><path class="cls-1" d="M142.46,75.61a5.19,5.19,0,0,1,5.16-5.18,5.22,5.22,0,1,1-5.16,5.18Z"/></g><path class="cls-2" d="M53.38,92.13a2.2,2.2,0,0,0,.17-.45,2.91,2.91,0,0,0-.69.13,22.5,22.5,0,0,1-20.34-.32,3.39,3.39,0,0,0-.57-.14,1.82,1.82,0,0,0,.23.55,60.45,60.45,0,0,0,4.23,5,9.78,9.78,0,0,0,6.33,2.82A8,8,0,0,0,45.8,99C49.22,97.73,51.41,95.05,53.38,92.13Z"/><path class="cls-2" d="M99.45,119.14h4.91V100.92l-4.91,0Z"/><path class="cls-2" d="M94.36,78.12h-.09a20.5,20.5,0,0,0-3.67.3,7.41,7.41,0,0,0-6.39,6.78,16.8,16.8,0,0,0,.31,5.15,7.17,7.17,0,0,0,6.86,5.81c1,0,3.57.15,3.87.15V78.12Z"/><path class="cls-2" d="M99.45,96.31l4.91,0V78.12H99.45Z"/><path class="cls-2" d="M108.55,119.13h1.35a10.11,10.11,0,0,0,7.95-3.38c4.51-5.13,1.8-12.77-5.11-14.43a13.85,13.85,0,0,0-3.28-.35h-.91Z"/><path class="cls-1" d="M135.21,76.88a4.91,4.91,0,0,1,0-2c.24-1.21-.27-1.41-1.35-1.4-7.72,0-15.44,0-23.16,0h-2.11V64.91a1.14,1.14,0,0,0-1.14-1.14H105.5a1.14,1.14,0,0,0-1.14,1.14v8.57H99.45V64.91a1.15,1.15,0,0,0-1.15-1.14H96.4a1.15,1.15,0,0,0-1.15,1.14v8.56h-3a12.34,12.34,0,0,0-7,2c-4,2.65-5.69,6.42-6,11.17-.49,8.77,5.82,14.59,14.2,14.26.24,0,1.42,0,1.72,0v18.26H79.59c-1.41,0-20,.16-26-2.54-6.44-2.88-8.86-10.36-8.27-12.08,2.4-1,4.81-1.54,6.83-3.17,3.72-3,6.2-6.92,8.32-11.09a79.27,79.27,0,0,0,5.76-16c.81-3.08.3-3.59-2.84-3a3,3,0,0,0-2.72,2.57,40.06,40.06,0,0,1-1.69,6c-.82,2.26-1.46,4.75-2.9,6.57-4.69,6-13.9,7.67-21,4.23-3.51-1.71-6.27-4.14-7.39-8.09-.84-2.93-1.82-5.83-2.6-8.77a2.73,2.73,0,0,0-2.23-2.28,14.88,14.88,0,0,0-1.75-.3c-1.72-.17-2.23.37-1.79,2,.62,2.38,1.27,4.76,2,7.09a55.34,55.34,0,0,0,8.16,16.73,22.21,22.21,0,0,0,9,7.18c3.29,1.28,4.83,12.45,9.61,14.88,9.86,5,26.18,4.64,46.25,4.68h.89v8.86a1.16,1.16,0,0,0,1.15,1.15h1.9a1.16,1.16,0,0,0,1.15-1.15V123.8h4.91v8.9a1.14,1.14,0,0,0,1.14,1.14h1.91a1.14,1.14,0,0,0,1.14-1.14v-8.92h2.68c5.73,0,10.6-3.2,12.35-8.48a19.83,19.83,0,0,0,.8-6.74,12.79,12.79,0,0,0-12.72-12.21h-3.11V78.12h.88q12.3,0,24.6,0C135,78.12,135.49,78,135.21,76.88ZM42.74,99.77A9.78,9.78,0,0,1,36.41,97a60.45,60.45,0,0,1-4.23-5,1.82,1.82,0,0,1-.23-.55,3.39,3.39,0,0,1,.57.14,22.5,22.5,0,0,0,20.34.32,2.91,2.91,0,0,1,.69-.13,2.2,2.2,0,0,1-.17.45c-2,2.92-4.16,5.6-7.58,6.9A8,8,0,0,1,42.74,99.77Zm52.51-3.46c-.3,0-2.88-.1-3.87-.15a7.17,7.17,0,0,1-6.86-5.81,16.8,16.8,0,0,1-.31-5.15,7.41,7.41,0,0,1,6.39-6.78,20.5,20.5,0,0,1,3.67-.3h1Zm9.11,22.83H99.45V100.88l4.91,0Zm0-22.81-4.91,0V78.12h4.91Zm5.07,4.64h0a13.85,13.85,0,0,1,3.28.35c6.91,1.66,9.62,9.3,5.11,14.43a10.11,10.11,0,0,1-7.95,3.38h-1.35V101Z"/><text class="cls-3" transform="translate(33.67 54.51)">Pub</text><text class="cls-4" transform="translate(84.3 54.81)">COI</text><path class="cls-1" d="M72.29,26.85C71.83,29,71.4,31.19,71,33.36h3.57c.57-3,1-5.86,1.33-8,0-4.5-1.34-7.29-4-9.47a21.18,21.18,0,0,0-8.18-3.81,2.73,2.73,0,0,1-2.06-1.4,3.85,3.85,0,0,0-1.28-1.14,2.19,2.19,0,0,0-.8-.17c0,.23,0,.47,0,.7a5.22,5.22,0,0,1-1.17,4.72c-.27.3-.53.61-.79.91A7.89,7.89,0,0,0,59,16a7.9,7.9,0,0,0,1.23-.25,4.31,4.31,0,0,1,1.7-.1,37.26,37.26,0,0,1,5.23,1.85C70.76,19.21,73.3,22,72.29,26.85Z"/><path class="cls-1" d="M66.19,55.59c-1,4.59-2,9.16-3,13.75a3.23,3.23,0,0,0,0,.87,16,16,0,0,0,2.61-.42c.3-.09.49-.71.59-1.12l3-13.08Z"/></svg>